<svg fill="none" viewBox="0 0 256 256">
  <path fill="#daff00" d="M73.202 238c-20.756 0-41.512-4.041-55.202-7.184v-70.04h3.533c5.3 44.897 27.822 61.959 49.46 61.959 15.016 0 25.614-8.532 25.614-24.694 0-13.02-7.949-22-22.522-33.225l-21.197-16.611C29.924 130.245 18 111.837 18 87.143 18 48.979 45.38 18 92.191 18c17.665 0 35.33 4.041 46.811 7.633v57.919h-3.091c-3.533-31.43-22.522-50.287-42.837-50.287-13.69 0-23.405 8.53-23.405 21.551 0 13.47 10.157 22 20.756 30.081l21.197 16.613c26.056 20.654 38.42 42.205 38.42 63.756 0 43.999-24.73 72.734-76.84 72.734zm125.494 0c-21.638 0-39.304-17.96-39.304-39.96 0-22.449 17.666-40.407 39.304-40.407 21.639 0 39.304 17.958 39.304 40.408 0 22-17.665 39.959-39.304 39.959Z"/>
</svg>