<svg fill="none" viewBox="0 0 256 256">
  <path fill="#000" d="M73.201802 238C52.445933 238 31.690064 233.95857 18 230.81578v-70.03994h3.53291c5.299407 44.89766 27.821789 61.95873 49.460751 61.95873 15.015022 0 25.61377-8.53136 25.61377-24.6938 0-13.01964-7.94914-21.99951-22.522373-33.22515l-21.197497-16.61094C29.92355 130.24496 18 111.83674 18 87.142953 18 48.979367 45.380046 18 92.191151 18c17.664639 0 35.329279 4.041436 46.811269 7.632717v57.918955h-3.09139c-3.53286-31.429521-22.52239-50.286236-42.836624-50.286236-13.689972 0-23.405466 8.529707-23.405466 21.551007 0 13.469796 10.157122 21.999501 20.755863 30.080713l21.197487 16.612574c26.05526 20.65402 38.42036 42.20503 38.42036 63.75603 0 43.99901-24.73036 72.73424-76.840848 72.73424zm125.494448 0c-21.63864 0-39.30376-17.95973-39.30376-39.95923 0-22.44965 17.66512-40.40772 39.30376-40.40772 21.63863 0 39.30375 17.95807 39.30375 40.40772C238 220.04027 220.33488 238 198.69625 238Z"/>
</svg>
