<svg width="600" height="600" viewBox="0 0 600 600" fill="none" xmlns="http://www.w3.org/2000/svg">
<rect width="600" height="600" fill="#232629"/>
<path d="M372.757 174.86C315.944 178.524 158.993 230.756 223.594 325.163C251.944 359.915 295.815 370.983 319.725 410.633C333.891 441.759 322.566 468.044 299.69 489C249.517 488.645 174.701 398.314 154.873 351.316C133.784 301.327 154.873 132.349 154.873 132.349C154.873 132.349 213.642 111 300.01 111C376.877 111 445.128 132.349 445.128 132.349C445.128 132.349 463.037 275.866 449.342 337.501C372.531 292.672 276.852 267.36 316.433 218.343C326.591 204.023 340.776 199.069 355.412 191.778C360.472 189.255 385.342 183.665 372.757 174.86Z" fill="white"/>
</svg>
