<svg width="556" height="246" viewBox="0 0 556 246" fill="none" xmlns="http://www.w3.org/2000/svg">
<path d="M38.6517 236.703C25.948 236.703 13.2443 234.27 4.86525 232.378V190.213H7.02758C10.2711 217.242 24.056 227.513 37.3002 227.513C46.4902 227.513 52.9772 222.377 52.9772 212.647C52.9772 204.809 48.1119 199.403 39.1923 192.645L26.2183 182.645C12.1631 171.833 4.86525 160.751 4.86525 145.885C4.86525 122.91 21.6233 104.26 50.2742 104.26C61.0859 104.26 71.8976 106.693 78.9252 108.855V143.723H77.0331C74.8708 124.802 63.2482 113.45 50.8148 113.45C42.4358 113.45 36.4894 118.585 36.4894 126.424C36.4894 134.533 42.7061 139.668 49.1931 144.533L62.1671 154.534C78.1143 166.968 85.6824 179.942 85.6824 192.916C85.6824 219.404 70.5461 236.703 38.6517 236.703ZM190.967 236.703L163.668 151.831L133.666 236.703H131.503L89.608 116.964C88.2565 113.18 86.3645 110.206 83.121 109.396V106.963H141.504V109.396H141.234C136.098 109.396 133.395 112.909 133.395 117.775C133.395 121.559 135.017 126.965 137.72 135.073L148.802 166.968L159.073 138.046L153.937 121.829C150.964 112.909 149.883 110.747 146.91 109.396V106.963H201.238V109.396H200.968C196.103 109.396 193.4 112.909 193.4 117.775C193.4 121.559 193.941 126.965 196.643 135.073L206.915 167.238L217.186 136.154C219.348 129.938 221.51 123.991 221.51 119.126C221.51 112.639 218.267 109.396 211.78 109.396H211.51V106.963H243.674V109.396C238.539 109.396 233.673 114.531 227.457 133.452L193.13 236.703H190.967ZM283.084 236.703C252.811 236.703 236.053 207.511 236.053 172.644C236.053 132.1 256.325 104.26 286.598 104.26C315.519 104.26 329.034 128.046 327.682 159.94H270.651C272.813 193.456 288.49 201.024 300.383 201.024C310.383 201.024 320.114 195.889 326.06 183.185L327.952 183.726C321.736 213.998 306.599 236.703 283.084 236.703ZM270.38 151.02H291.193C290.922 121.288 287.949 111.828 280.651 111.828C274.164 111.828 270.38 122.099 270.38 151.02ZM380.484 236.703C350.211 236.703 333.453 207.511 333.453 172.644C333.453 132.1 353.725 104.26 383.998 104.26C412.919 104.26 426.434 128.046 425.082 159.94H368.051C370.213 193.456 385.89 201.024 397.783 201.024C407.783 201.024 417.514 195.889 423.46 183.185L425.352 183.726C419.136 213.998 403.999 236.703 380.484 236.703ZM367.78 151.02H388.593C388.322 121.288 385.349 111.828 378.051 111.828C371.564 111.828 367.78 122.099 367.78 151.02ZM465.451 236.162C447.341 236.162 438.151 225.351 438.151 200.484V116.423H429.231V112.909C444.908 108.585 467.072 86.4208 473.559 66.9598H477.343V106.963H498.156V116.423H477.343L477.073 201.024C477.073 209.674 479.776 212.377 484.101 212.377C489.236 212.377 493.561 208.593 498.426 198.862L500.318 199.673C492.48 225.351 480.587 236.162 465.451 236.162ZM528.289 236.703C515.045 236.703 504.233 225.891 504.233 212.647C504.233 199.132 515.045 188.321 528.289 188.321C541.533 188.321 552.345 199.132 552.345 212.647C552.345 225.891 541.533 236.703 528.289 236.703Z" fill="black"/>
</svg>
